<?xml version="1.0" encoding="UTF-8"?>
<svg xmlns="http://www.w3.org/2000/svg" viewBox="0 0 512 512">
  <!-- Car body -->
  <path d="M424 288h-8v-48c0-35.3-28.7-64-64-64h-96l-28.1-43.9C219.9 119 206.9 112 192.7 112H96c-35.3 0-64 28.7-64 64v112h-8c-13.3 0-24 10.7-24 24v48c0 13.3 10.7 24 24 24h8v48c0 8.8 7.2 16 16 16h48c8.8 0 16-7.2 16-16v-16h224v16c0 8.8 7.2 16 16 16h48c8.8 0 16-7.2 16-16v-48h8c13.3 0 24-10.7 24-24v-48c0-13.3-10.7-24-24-24z" fill="#FFCC00"/>
  
  <!-- Windows -->
  <path d="M112 336c-26.5 0-48-21.5-48-48s21.5-48 48-48 48 21.5 48 48-21.5 48-48 48zm288 0c-26.5 0-48-21.5-48-48s21.5-48 48-48 48 21.5 48 48-21.5 48-48 48z" fill="#333333"/>
  
  <!-- Wheels -->
  <circle cx="112" cy="288" r="32" fill="#333333"/>
  <circle cx="400" cy="288" r="32" fill="#333333"/>
  
  <!-- Headlights -->
  <path d="M72 240h-16c-4.4 0-8 3.6-8 8v16c0 4.4 3.6 8 8 8h16c4.4 0 8-3.6 8-8v-16c0-4.4-3.6-8-8-8zm384 0h-16c-4.4 0-8 3.6-8 8v16c0 4.4 3.6 8 8 8h16c4.4 0 8-3.6 8-8v-16c0-4.4-3.6-8-8-8z" fill="#FFFFFF"/>
  
  <!-- Details -->
  <path d="M416 256h-48c-8.8 0-16 7.2-16 16v32c0 8.8 7.2 16 16 16h48c8.8 0 16-7.2 16-16v-32c0-8.8-7.2-16-16-16z" fill="#444444"/>
  
  <!-- Taxi sign -->
  <rect x="224" y="176" width="64" height="24" rx="8" fill="#FFFFFF"/>
  <text x="256" y="193" font-family="Arial, sans-serif" font-size="16" font-weight="bold" text-anchor="middle" fill="#000000">TAXI</text>
  
  <!-- Wheel details -->
  <circle cx="112" cy="288" r="8" fill="#666666"/>
  <circle cx="400" cy="288" r="8" fill="#666666"/>
</svg>